%
M48
M72
T01C0.0320
T02C0.0346
T03C0.0440
T04C0.0660
%
T01
X10101Y2625
X10101Y7625
X10101Y9125
X7601Y11125
X5351Y11125
X3851Y11125
X1601Y11125
X10101Y14125
X10101Y15625
X7601Y16125
X5351Y16125
X3851Y16125
X1601Y16125
X10101Y20625
X25101Y20625
X27601Y20625
X27601Y15625
X25101Y15625
X25101Y14125
X27601Y14125
X27601Y9125
X25101Y9125
X25101Y7625
X27601Y7625
X27601Y2625
X25101Y2625
X42601Y2625
X42601Y7625
X42601Y9125
X42601Y14125
X42601Y15625
X42601Y20625
T02
X40101Y16129
X40101Y15125
X40101Y14121
X40101Y11129
X40101Y10125
X40101Y9121
X30101Y9121
X30101Y10125
X30101Y11129
X30101Y14121
X30101Y15125
X30101Y16129
X22601Y16629
X22601Y15625
X22601Y14621
X22601Y11129
X22601Y10125
X22601Y9121
X12601Y9121
X12601Y10125
X12601Y11129
X12601Y14621
X12601Y15625
X12601Y16629
T03
X16101Y16875
X18601Y16875
X18601Y12875
X16101Y12875
X16101Y10375
X18601Y10375
X18601Y6375
X16101Y6375
X33601Y6375
X36101Y6375
X36101Y10375
X33601Y10375
X33601Y12875
X36101Y12875
X36101Y16875
X33601Y16875
T04
X2001Y4125
X3561Y4125
X5121Y4125
X4951Y19125
X3391Y19125
X1831Y19125
X6511Y19125
X47101Y13895
X47101Y12335
X47101Y10775
X47101Y9215
M30
