G75*
G70*
%OFA0B0*%
%FSLAX24Y24*%
%IPPOS*%
%LPD*%
%AMOC8*
5,1,8,0,0,1.08239X$1,22.5*
%
%ADD10C,0.0000*%
%ADD11C,0.0546*%
%ADD12C,0.0660*%
%ADD13OC8,0.0520*%
%ADD14C,0.0990*%
%ADD15C,0.0160*%
D10*
X000101Y000625D02*
X000101Y021495D01*
X049593Y021495D01*
X049593Y000625D01*
X000101Y000625D01*
D11*
X012328Y009121D02*
X012874Y009121D01*
X012874Y010125D02*
X012328Y010125D01*
X012328Y011129D02*
X012874Y011129D01*
X012874Y014621D02*
X012328Y014621D01*
X012328Y015625D02*
X012874Y015625D01*
X012874Y016629D02*
X012328Y016629D01*
X022328Y016629D02*
X022874Y016629D01*
X022874Y015625D02*
X022328Y015625D01*
X022328Y014621D02*
X022874Y014621D01*
X029828Y014121D02*
X030374Y014121D01*
X030374Y015125D02*
X029828Y015125D01*
X029828Y016129D02*
X030374Y016129D01*
X039828Y016129D02*
X040374Y016129D01*
X040374Y015125D02*
X039828Y015125D01*
X039828Y014121D02*
X040374Y014121D01*
X040374Y011129D02*
X039828Y011129D01*
X039828Y010125D02*
X040374Y010125D01*
X040374Y009121D02*
X039828Y009121D01*
X030374Y009121D02*
X029828Y009121D01*
X029828Y010125D02*
X030374Y010125D01*
X030374Y011129D02*
X029828Y011129D01*
X022874Y011129D02*
X022328Y011129D01*
X022328Y010125D02*
X022874Y010125D01*
X022874Y009121D02*
X022328Y009121D01*
D12*
X018601Y010375D03*
X016101Y010375D03*
X016101Y012875D03*
X018601Y012875D03*
X018601Y016875D03*
X016101Y016875D03*
X033601Y016875D03*
X036101Y016875D03*
X036101Y012875D03*
X033601Y012875D03*
X033601Y010375D03*
X036101Y010375D03*
X036101Y006375D03*
X033601Y006375D03*
X018601Y006375D03*
X016101Y006375D03*
D13*
X010101Y007625D03*
X010101Y009125D03*
X007601Y011125D03*
X005351Y011125D03*
X003851Y011125D03*
X001601Y011125D03*
X010101Y014125D03*
X010101Y015625D03*
X007601Y016125D03*
X005351Y016125D03*
X003851Y016125D03*
X001601Y016125D03*
X010101Y020625D03*
X025101Y020625D03*
X027601Y020625D03*
X027601Y015625D03*
X025101Y015625D03*
X025101Y014125D03*
X027601Y014125D03*
X027601Y009125D03*
X025101Y009125D03*
X025101Y007625D03*
X027601Y007625D03*
X027601Y002625D03*
X025101Y002625D03*
X010101Y002625D03*
X042601Y002625D03*
X042601Y007625D03*
X042601Y009125D03*
X042601Y014125D03*
X042601Y015625D03*
X042601Y020625D03*
D14*
X046606Y013895D02*
X047596Y013895D01*
X047596Y012335D02*
X046606Y012335D01*
X046606Y010775D02*
X047596Y010775D01*
X047596Y009215D02*
X046606Y009215D01*
X006511Y018630D02*
X006511Y019620D01*
X004951Y019620D02*
X004951Y018630D01*
X003391Y018630D02*
X003391Y019620D01*
X001831Y019620D02*
X001831Y018630D01*
X002001Y004620D02*
X002001Y003630D01*
X003561Y003630D02*
X003561Y004620D01*
X005121Y004620D02*
X005121Y003630D01*
D15*
X005121Y004125D02*
X005121Y006605D01*
X001101Y010625D01*
X001101Y012625D01*
X006601Y012625D01*
X008601Y014625D01*
X008601Y019625D01*
X009601Y020625D01*
X010101Y020625D01*
X025101Y020625D01*
X018601Y020625D01*
X018601Y016875D01*
X021351Y016875D01*
X022601Y015625D01*
X022601Y016629D02*
X024101Y015129D01*
X024101Y014125D01*
X025101Y012625D01*
X025101Y009125D01*
X025101Y007625D01*
X023101Y006625D02*
X019851Y006625D01*
X016101Y010375D01*
X015851Y010125D01*
X012601Y010125D01*
X011601Y009625D02*
X011601Y013125D01*
X012101Y013625D01*
X018101Y013625D01*
X018601Y013125D01*
X019601Y014125D01*
X022101Y014125D01*
X022597Y014621D01*
X022601Y014621D01*
X025101Y014125D02*
X025101Y015625D01*
X027601Y015625D02*
X027601Y014125D01*
X028601Y013125D02*
X028601Y016125D01*
X028605Y016129D01*
X030101Y016129D01*
X030101Y015125D02*
X031851Y016875D01*
X033601Y016875D01*
X036101Y016875D01*
X038351Y016875D01*
X040101Y015125D01*
X040101Y014121D02*
X041605Y014121D01*
X042101Y013125D01*
X044601Y013125D01*
X045601Y012125D01*
X046891Y012125D01*
X047101Y012335D01*
X045601Y012125D02*
X043851Y010375D01*
X039851Y010375D01*
X040101Y010125D01*
X039851Y010375D02*
X036101Y010375D01*
X036101Y012875D01*
X035351Y013625D01*
X030101Y013625D01*
X028601Y011625D01*
X028601Y006125D01*
X027601Y003625D01*
X027601Y002625D01*
X026601Y001625D02*
X016101Y001625D01*
X016101Y006375D01*
X013355Y009121D01*
X012601Y009121D01*
X011601Y009625D02*
X011101Y009125D01*
X011101Y003625D01*
X010101Y002625D01*
X005601Y001625D02*
X016101Y001625D01*
X023101Y006625D02*
X025101Y004125D01*
X025101Y002625D01*
X026601Y001625D02*
X036101Y001625D01*
X036101Y006375D01*
X033601Y006375D01*
X030855Y009121D01*
X030101Y009121D01*
X030101Y010125D02*
X030351Y010375D01*
X033601Y010375D01*
X037851Y006125D01*
X039601Y006125D01*
X042601Y002625D01*
X044101Y003125D02*
X044101Y001625D01*
X036101Y001625D01*
X040101Y007625D02*
X044101Y003125D01*
X042601Y007625D02*
X042601Y009125D01*
X040101Y009121D02*
X040101Y007625D01*
X033601Y010375D02*
X033601Y012875D01*
X028601Y013125D02*
X027601Y012125D01*
X027601Y009125D01*
X027601Y007625D01*
X026601Y004125D02*
X022601Y008625D01*
X022601Y009121D01*
X022601Y010125D02*
X022101Y010625D01*
X018851Y010625D01*
X018601Y010375D01*
X018601Y012875D01*
X018601Y013125D01*
X016101Y012875D02*
X016101Y010375D01*
X011101Y010125D02*
X011101Y015625D01*
X012105Y016629D01*
X012601Y016629D01*
X012601Y015625D02*
X013851Y016875D01*
X016101Y016875D01*
X018601Y016875D01*
X025101Y020625D02*
X027601Y020625D01*
X036101Y020625D01*
X036101Y016875D01*
X042601Y015625D02*
X042601Y014125D01*
X042601Y020625D02*
X036101Y020625D01*
X011101Y010125D02*
X010101Y009125D01*
X010101Y007625D01*
X016101Y006375D02*
X018601Y006375D01*
X026601Y004125D02*
X026601Y001625D01*
X005601Y001625D02*
X003561Y003665D01*
X003561Y004125D01*
X002001Y004125D01*
X010101Y014125D02*
X010101Y015625D01*
X007601Y016125D02*
X006511Y017215D01*
X006511Y019125D01*
X004951Y019125D02*
X004951Y016525D01*
X005351Y016125D01*
X003851Y016125D02*
X003391Y016585D01*
X003391Y019125D01*
X001831Y019125D02*
X001831Y016355D01*
X001601Y016125D01*
M02*
