G75*
G70*
%OFA0B0*%
%FSLAX24Y24*%
%IPPOS*%
%LPD*%
%AMOC8*
5,1,8,0,0,1.08239X$1,22.5*
%
%ADD10C,0.0626*%
%ADD11C,0.0740*%
%ADD12OC8,0.0600*%
%ADD13C,0.1070*%
D10*
X012328Y009121D02*
X012874Y009121D01*
X012874Y010125D02*
X012328Y010125D01*
X012328Y011129D02*
X012874Y011129D01*
X012874Y014621D02*
X012328Y014621D01*
X012328Y015625D02*
X012874Y015625D01*
X012874Y016629D02*
X012328Y016629D01*
X022328Y016629D02*
X022874Y016629D01*
X022874Y015625D02*
X022328Y015625D01*
X022328Y014621D02*
X022874Y014621D01*
X029828Y014121D02*
X030374Y014121D01*
X030374Y015125D02*
X029828Y015125D01*
X029828Y016129D02*
X030374Y016129D01*
X039828Y016129D02*
X040374Y016129D01*
X040374Y015125D02*
X039828Y015125D01*
X039828Y014121D02*
X040374Y014121D01*
X040374Y011129D02*
X039828Y011129D01*
X039828Y010125D02*
X040374Y010125D01*
X040374Y009121D02*
X039828Y009121D01*
X030374Y009121D02*
X029828Y009121D01*
X029828Y010125D02*
X030374Y010125D01*
X030374Y011129D02*
X029828Y011129D01*
X022874Y011129D02*
X022328Y011129D01*
X022328Y010125D02*
X022874Y010125D01*
X022874Y009121D02*
X022328Y009121D01*
D11*
X018601Y010375D03*
X016101Y010375D03*
X016101Y012875D03*
X018601Y012875D03*
X018601Y016875D03*
X016101Y016875D03*
X033601Y016875D03*
X036101Y016875D03*
X036101Y012875D03*
X033601Y012875D03*
X033601Y010375D03*
X036101Y010375D03*
X036101Y006375D03*
X033601Y006375D03*
X018601Y006375D03*
X016101Y006375D03*
D12*
X010101Y007625D03*
X010101Y009125D03*
X007601Y011125D03*
X005351Y011125D03*
X003851Y011125D03*
X001601Y011125D03*
X010101Y014125D03*
X010101Y015625D03*
X007601Y016125D03*
X005351Y016125D03*
X003851Y016125D03*
X001601Y016125D03*
X010101Y020625D03*
X025101Y020625D03*
X027601Y020625D03*
X027601Y015625D03*
X025101Y015625D03*
X025101Y014125D03*
X027601Y014125D03*
X027601Y009125D03*
X025101Y009125D03*
X025101Y007625D03*
X027601Y007625D03*
X027601Y002625D03*
X025101Y002625D03*
X010101Y002625D03*
X042601Y002625D03*
X042601Y007625D03*
X042601Y009125D03*
X042601Y014125D03*
X042601Y015625D03*
X042601Y020625D03*
D13*
X002001Y004620D02*
X002001Y003630D01*
X003561Y003630D02*
X003561Y004620D01*
X005121Y004620D02*
X005121Y003630D01*
X004951Y018630D02*
X004951Y019620D01*
X003391Y019620D02*
X003391Y018630D01*
X001831Y018630D02*
X001831Y019620D01*
X006511Y019620D02*
X006511Y018630D01*
X046606Y013895D02*
X047596Y013895D01*
X047596Y012335D02*
X046606Y012335D01*
X046606Y010775D02*
X047596Y010775D01*
X047596Y009215D02*
X046606Y009215D01*
M02*
